<svg xmlns="http://www.w3.org/2000/svg" xmlns:xlink="http://www.w3.org/1999/xlink" xmlns:fi="http://pattern.flaticon.com/" x="0" y="0" width="700" height="350" viewBox="0 0 700 350"><rect x="0px" y="0px" width="100%" height="100%" opacity="1" fill="#ffffff"/><defs><g transform="matrix(0.07812492549419403 0 0 0.07812492549419403 155 330)" id="L1_10"><path d="m429.011719 253.109375c24.320312-14.5 24.320312-49.722656 0-64.226563 18.648437-21.308593 7.765625-54.804687-19.847657-61.082031 11.148438-26.027343-9.550781-54.523437-37.75-51.960937 2.558594-28.199219-25.933593-48.902344-51.964843-37.753906-6.277344-27.609376-39.773438-38.492188-61.082031-19.847657-14.503907-24.316406-49.722657-24.316406-64.226563 0-21.308594-18.648437-54.804687-7.761719-61.085937 19.847657-26.027344-11.148438-54.519532 9.554687-51.960938 37.753906-28.199219-2.5625-48.898438 25.933594-37.75 51.960937-27.609375 6.277344-38.496094 39.773438-19.847656 61.082031-24.320313 14.503907-24.320313 49.722657 0 64.226563zm0 0" fill="#3a484a"/><path d="m136.175781 389.101562s-57.960937 43.675782-57.960937 122.898438h296.078125c0-79.222656-57.960938-122.898438-57.960938-122.898438zm0 0" fill="#fd6f71"/><path d="m167.082031 389.101562h-30.90625s-57.960937 43.675782-57.960937 122.898438h30.90625c0-79.222656 57.960937-122.898438 57.960937-122.898438zm0 0" fill="#e34b4c"/><g fill="#e3b098"><path d="m280.300781 398.707031c0 29.847657-24.199219 54.042969-54.046875 54.042969s-54.046875-24.195312-54.046875-54.042969c0-29.847656 24.199219-54.046875 54.046875-54.046875s54.046875 24.199219 54.046875 54.046875zm0 0"/><path d="m0 244.121094c0 23.730468 19.238281 42.96875 42.96875 42.96875s22.363281-19.238282 22.363281-42.96875c0-23.730469 1.214844-42.964844-22.515625-42.964844-23.730468 0-42.816406 19.234375-42.816406 42.964844zm0 0"/><path d="m452.507812 244.121094c0 23.730468-19.238281 42.96875-42.96875 42.96875-23.730468 0-42.96875-19.238282-42.96875-42.96875 0-23.730469 19.390626-42.964844 43.121094-42.964844 23.730469 0 42.816406 19.234375 42.816406 42.964844zm0 0"/></g><path d="m410.546875 219.761719c-.015625-16.09375-3.179687-32.046875-9.183594-46.980469-16.082031-40-60.574219-102.945312-175.109375-54.121094-114.535156-48.824218-159.027344 14.121094-175.113281 54.121094-6 14.933594-9.164063 30.886719-9.179687 46.980469v.191406c0 107.066406 82.511718 193.859375 184.292968 193.859375s184.292969-86.792969 184.292969-193.859375c0-.066406 0-.128906 0-.191406zm0 0" fill="#fbc4ac"/><path d="m72.867188 219.953125c0-.066406 0-.128906 0-.191406.015624-16.09375 3.179687-32.046875 9.179687-46.980469 10.878906-27.054688 34.761719-64.59375 84.511719-70.960938-71.214844-8.125-102.492188 38.820313-115.417969 70.960938-6 14.933594-9.164063 30.886719-9.179687 46.980469v.191406c0 107.066406 82.511718 193.859375 184.292968 193.859375 5.207032 0 10.355469-.238281 15.453125-.683594-94.550781-8.261718-168.839843-91.585937-168.839843-193.175781zm0 0" fill="#e3b098"/><path d="m320.074219 250.582031c-4.265625 0-7.726563-3.457031-7.726563-7.722656v-18.246094c0-4.265625 3.460938-7.726562 7.726563-7.726562 4.269531 0 7.726562 3.460937 7.726562 7.726562v18.246094c0 4.265625-3.457031 7.722656-7.726562 7.722656zm0 0" fill="#3a484a"/><path d="m332.5 277.398438h-24.847656c-4.269532 0-7.726563-3.460938-7.726563-7.726563 0-4.269531 3.457031-7.726563 7.726563-7.726563h24.847656c4.265625 0 7.726562 3.457032 7.726562 7.726563 0 4.265625-3.460937 7.726563-7.726562 7.726563zm0 0" fill="#f98084"/><path d="m132.433594 250.582031c-4.269532 0-7.726563-3.457031-7.726563-7.722656v-18.246094c0-4.265625 3.457031-7.726562 7.726563-7.726562 4.265625 0 7.726562 3.460937 7.726562 7.726562v18.246094c0 4.265625-3.460937 7.722656-7.726562 7.722656zm0 0" fill="#3a484a"/><path d="m144.855469 277.398438h-24.847657c-4.269531 0-7.726562-3.460938-7.726562-7.726563 0-4.269531 3.457031-7.726563 7.726562-7.726563h24.847657c4.269531 0 7.726562 3.457032 7.726562 7.726563 0 4.265625-3.457031 7.726563-7.726562 7.726563zm0 0" fill="#f98084"/><path d="m226.253906 276.367188c-8.769531 0-17.007812-3.667969-22.597656-10.066407-2.808594-3.210937-2.480469-8.09375.730469-10.902343 3.214843-2.808594 8.09375-2.480469 10.902343.734374 2.65625 3.039063 6.652344 4.78125 10.964844 4.78125s8.304688-1.742187 10.964844-4.785156c2.808594-3.210937 7.6875-3.539062 10.902344-.730468 3.210937 2.808593 3.539062 7.6875.730468 10.902343-5.589843 6.398438-13.828124 10.066407-22.597656 10.066407zm0 0" fill="#3a484a"/><path d="m429.660156 385.773438c0 46.898437-38.019531 84.917968-84.917968 84.917968-46.898438 0-84.917969-38.019531-84.917969-84.917968 0-46.902344 38.019531-84.917969 84.917969-84.917969 46.898437 0 84.917968 38.015625 84.917968 84.917969zm0 0" fill="#58b78c"/><path d="m386.878906 378.046875h-34.410156v-34.414063c0-4.265624-3.457031-7.726562-7.726562-7.726562-4.269532 0-7.726563 3.460938-7.726563 7.726562v34.414063h-34.410156c-4.269531 0-7.726563 3.457031-7.726563 7.726563 0 4.265624 3.457032 7.726562 7.726563 7.726562h34.410156v34.410156c0 4.269532 3.457031 7.726563 7.726563 7.726563 4.269531 0 7.726562-3.457031 7.726562-7.726563v-34.410156h34.410156c4.269532 0 7.726563-3.460938 7.726563-7.726562 0-4.269532-3.457031-7.726563-7.726563-7.726563zm0 0" fill="#efedee"/></g><g transform="matrix(0.13671875 0 0 0.13671875 315 140)" id="L1_11"><path d="m250 442.949219-53.464844-110.355469c65.351563-26.433594 118.9375 0 118.9375 0h115.605469c12.957031 11.042969 53.464844 50.359375 53.464844 110.355469zm0 0" fill="#fadc60"/><path d="m417.738281 44.960938c0 24.558593-19.90625 44.464843-44.460937 44.464843-24.558594 0-44.464844-19.90625-44.464844-44.464843 0-24.554688 19.90625-44.460938 44.464844-44.460938 24.554687 0 44.460937 19.90625 44.460937 44.460938zm0 0" fill="#323e40"/><path d="m407.609375 345.421875c0 18.960937-15.371094 34.335937-34.332031 34.335937-18.964844 0-34.335938-15.375-34.335938-34.335937s15.371094-34.332031 34.335938-34.332031c18.960937 0 34.332031 15.371094 34.332031 34.332031zm0 0" fill="#e3b098"/><path d="m437.792969 321.332031s-24.554688 28.429688 0 45.796875c11.738281 8.300782 22.324219 4.914063 30.175781-.882812 12.578125-9.289063 17.472656-26.066406 10.695312-40.15625-3.355468-6.980469-9.597656-13.476563-20.96875-16.386719zm0 0" fill="#e3b098"/><path d="m512 203.949219c0 78.140625-62.109375 141.476562-138.722656 141.476562-76.625 0-138.734375-63.335937-138.734375-141.476562l15.457031-34.800781 98.375-79.722657h24.902344l49.953125 5.550781 74.175781 70.050782zm0 0" fill="#fbc4ac"/><path d="m512 203.949219s-32.449219-32.058594-75.070312-50.601563c-42.628907-18.542968-63.652344-46.007812-63.652344-46.007812s-21.027344 27.464844-63.65625 46.007812c-42.617188 18.542969-75.070313 50.601563-75.070313 50.601563h-.007812v-.007813c.007812-78.140625 62.109375-141.464844 138.734375-141.464844 76.613281 0 138.722656 63.335938 138.722656 141.472657zm0 0" fill="#3a484a"/><path d="m447.222656 232.777344c-4.269531 0-7.726562-3.460938-7.726562-7.726563v-14.378906c0-4.265625 3.457031-7.726563 7.726562-7.726563 4.269532 0 7.726563 3.460938 7.726563 7.726563v14.378906c0 4.265625-3.457031 7.726563-7.726563 7.726563zm0 0" fill="#3a484a"/><path d="m457.015625 253.914062h-19.585937c-4.269532 0-7.726563-3.460937-7.726563-7.726562 0-4.269531 3.457031-7.726562 7.726563-7.726562h19.585937c4.265625 0 7.726563 3.457031 7.726563 7.726562 0 4.265625-3.460938 7.726562-7.726563 7.726562zm0 0" fill="#f98084"/><path d="m299.320312 232.777344c-4.269531 0-7.726562-3.460938-7.726562-7.726563v-14.378906c0-4.265625 3.457031-7.726563 7.726562-7.726563 4.265626 0 7.726563 3.460938 7.726563 7.726563v14.378906c0 4.265625-3.460937 7.726563-7.726563 7.726563zm0 0" fill="#3a484a"/><path d="m309.109375 253.914062h-19.582031c-4.269532 0-7.726563-3.460937-7.726563-7.726562 0-4.269531 3.457031-7.726562 7.726563-7.726562h19.582031c4.269531 0 7.726563 3.457031 7.726563 7.726562 0 4.265625-3.457032 7.726562-7.726563 7.726562zm0 0" fill="#f98084"/><path d="m373.269531 253.101562c-7.382812 0-14.324219-3.097656-19.042969-8.496093-2.808593-3.210938-2.480468-8.09375.734376-10.902344 3.210937-2.808594 8.089843-2.480469 10.898437.734375 1.785156 2.039062 4.488281 3.210938 7.410156 3.210938 2.925781 0 5.625-1.171876 7.410157-3.210938 2.808593-3.214844 7.6875-3.542969 10.902343-.734375 3.210938 2.808594 3.539063 7.691406.730469 10.902344-4.71875 5.398437-11.65625 8.496093-19.042969 8.496093zm0 0" fill="#3a484a"/><path d="m250 442.949219c0-59.996094-40.503906-99.3125-53.464844-110.355469h-115.601562c-12.960938 11.042969-53.464844 50.359375-53.464844 110.355469zm0 0" fill="#58b78c"/><path d="m173.066406 345.421875c0 18.960937-15.371094 34.335937-34.332031 34.335937s-34.332031-15.375-34.332031-34.335937 15.371094-34.332031 34.332031-34.332031 34.332031 15.371094 34.332031 34.332031zm0 0" fill="#d9a891"/><path d="m74.214844 321.332031s24.554687 28.429688 0 45.796875c-11.738282 8.300782-22.320313 4.914063-30.171875-.882812-12.578125-9.289063-17.476563-26.066406-10.699219-40.15625 3.359375-6.980469 9.597656-13.476563 20.96875-16.386719zm0 0" fill="#fbc4ac"/><path d="m67.351562 442.949219v-37.601563c0-4.265625 3.460938-7.726562 7.726563-7.726562 4.269531 0 7.726563 3.460937 7.726563 7.726562v37.601563zm0 0" fill="#46926f"/><path d="m194.664062 442.949219v-37.601563c0-4.265625 3.457032-7.726562 7.726563-7.726562 4.265625 0 7.726563 3.460937 7.726563 7.726562v37.601563zm0 0" fill="#46926f"/><path d="m429.199219 442.949219v-37.601563c0-4.265625 3.457031-7.726562 7.726562-7.726562s7.726563 3.460937 7.726563 7.726562v37.601563zm0 0" fill="#f2c42c"/><path d="m277.449219 202.683594v.296875c.007812.15625.019531.320312.007812.484375v.484375c0 78.140625-62.109375 141.476562-138.722656 141.476562-76.625 0-138.734375-63.335937-138.734375-141.476562h.0117188l30.2773432-57.464844 54.839844-47.390625 111.40625 8.246094 72.171875 61.121094zm0 0" fill="#e3b098"/><path d="m212.679688 232.777344c-4.265626 0-7.726563-3.460938-7.726563-7.726563v-14.378906c0-4.265625 3.460937-7.726563 7.726563-7.726563 4.269531 0 7.726562 3.460938 7.726562 7.726563v14.378906c0 4.265625-3.457031 7.726563-7.726562 7.726563zm0 0" fill="#3a484a"/><path d="m222.472656 253.914062h-19.585937c-4.265625 0-7.726563-3.460937-7.726563-7.726562 0-4.269531 3.460938-7.726562 7.726563-7.726562h19.585937c4.269532 0 7.726563 3.457031 7.726563 7.726562 0 4.265625-3.457031 7.726562-7.726563 7.726562zm0 0" fill="#f98084"/><path d="m64.777344 232.777344c-4.269532 0-7.726563-3.460938-7.726563-7.726563v-14.378906c0-4.265625 3.457031-7.726563 7.726563-7.726563 4.269531 0 7.726562 3.460938 7.726562 7.726563v14.378906c0 4.265625-3.457031 7.726563-7.726562 7.726563zm0 0" fill="#3a484a"/><path d="m74.570312 253.914062h-19.585937c-4.265625 0-7.726563-3.460937-7.726563-7.726562 0-4.269531 3.460938-7.726562 7.726563-7.726562h19.585937c4.265626 0 7.726563 3.457031 7.726563 7.726562 0 4.265625-3.460937 7.726562-7.726563 7.726562zm0 0" fill="#f98084"/><path d="m138.730469 253.101562c-7.386719 0-14.328125-3.097656-19.046875-8.496093-2.808594-3.210938-2.480469-8.09375.734375-10.902344 3.210937-2.808594 8.09375-2.480469 10.902343.734375 1.78125 2.039062 4.484376 3.210938 7.410157 3.210938 2.921875 0 5.625-1.171876 7.40625-3.210938 2.808593-3.214844 7.691406-3.542969 10.902343-.734375 3.214844 2.808594 3.542969 7.691406.734376 10.902344-4.71875 5.398437-11.660157 8.496093-19.042969 8.496093zm0 0" fill="#3a484a"/><path d="m277.449219 202.683594c-1.988281-52.847656-129.019531-28.660156-180.953125-73.574219-4.5-3.894531-11.558594-1.9375-13.535156 3.6875-8.5 24.054687-31.679688 71.152344-82.9492192 71.152344h-.0117188c0-78.136719 62.109375-141.472657 138.734375-141.472657 76.203125 0 138.054687 62.65625 138.714844 140.207032zm0 0" fill="#fadc60"/></g><g transform="matrix(0.17578090727329254 0 0 0.17578090727329254 217.5 217.5)" id="L1_12"><path d="m468.601562 106.300781v-62.898437h-62.902343c0 23.96875-19.429688 43.398437-43.398438 43.398437s-43.402343-19.429687-43.402343-43.398437h-62.898438l-51.46875 121.851562 51.46875 90.746094 106.238281 78.742188 106.363281-78.742188v-62.898438c23.96875 0 43.398438-19.433593 43.398438-43.402343s-19.429688-43.398438-43.398438-43.398438zm0 0" fill="#42c3e2"/><path d="m256 256-101.363281-84.597656-111.234375 84.597656v62.898438c-23.96875 0-43.402344 19.429687-43.402344 43.402343 0 23.96875 19.433594 43.398438 43.402344 43.398438v62.898437h62.898437c0-23.96875 19.429688-43.398437 43.402344-43.398437 23.96875 0 43.398437 19.429687 43.398437 43.398437h62.898438l50.109375-84.597656zm0 0" fill="#b6a4ff"/><path d="m468.601562 318.898438v-62.898438h-62.898437c0 23.96875-19.433594 43.402344-43.402344 43.402344s-43.402343-19.433594-43.402343-43.402344h-62.898438v62.898438c-23.96875 0-43.398438 19.433593-43.398438 43.402343s19.429688 43.398438 43.398438 43.398438v62.902343h62.898438c0 23.96875 19.433593 43.398438 43.402343 43.398438s43.402344-19.429688 43.402344-43.398438h62.898437v-62.902343c-23.972656 0-43.402343-19.429688-43.402343-43.398438s19.429687-43.402343 43.402343-43.402343zm0 0" fill="#eb6da8"/><path d="m256 106.300781v-62.898437h-62.898438c0-23.972656-19.429687-43.402344-43.402343-43.402344-23.96875 0-43.398438 19.429688-43.398438 43.402344h-62.898437v62.898437c23.96875 0 43.398437 19.429688 43.398437 43.398438 0 23.972656-19.429687 43.402343-43.398437 43.402343v62.898438h62.898437c0-23.96875 19.429688-43.402344 43.402344-43.402344 23.96875 0 43.398437 19.433594 43.398437 43.402344h62.898438v-62.898438c23.96875 0 43.402344-19.433593 43.402344-43.402343s-19.433594-43.398438-43.402344-43.398438zm0 0" fill="#fadc60"/></g><g transform="matrix(0.16978774853652037 0.04549449010505916 -0.04549449010505916 0.16978774853652037 313.21290670237073 294.2327971191429)" id="L1_13"><path d="m167.613281 53.757812-54.925781 58.039063-17.714844 70.285156 31.058594 17.582031 49.460938-47.285156 23.175781-81.042968zm0 0" fill="#efedee"/><path d="m410.152344 175.433594-4.992188-77.976563-43.914062-61.132812-33.667969 11.835937v66.074219l41.042969 50.667969 7.863281 22.367187zm0 0" fill="#efedee"/><path d="m327.578125 48.160156-51.933594-5.765625-24.554687 21.074219v37.539062l45.863281 131.863282s69.792969-30.007813 72.789063-66.585938zm0 0" fill="#fbc4ac"/><path d="m251.085938 101.007812 75.226562 42.582032c8.859375 5.015625 11.976562 16.261718 6.960938 25.121094-5.015626 8.859374-16.261719 11.972656-25.121094 6.960937 8.859375 5.011719 11.976562 16.257813 6.960937 25.117187-5.015625 8.859376-16.261719 11.976563-25.117187 6.960938 8.859375 5.015625 11.972656 16.261719 6.960937 25.121094-5.015625 8.859375-16.261719 11.976562-25.121093 6.960937 8.859374 5.015625 11.976562 16.261719 6.960937 25.121094s-16.261719 11.972656-25.121094 6.960937l-127.644531-72.253906 72.636719-128.324218 20.335937 11.511718zm0 0" fill="#e3b098"/><path d="m141.160156 185.199219-41.105468-23.269531-5.082032 20.152343 24.230469 13.714844 6.828125 3.867187zm0 0" fill="#d2d2d2"/><path d="m167.605469 53.757812-72.636719 128.332032-94.96875-53.75 72.636719-128.3320315zm0 0" fill="#6ee3ff"/><path d="m402.296875 157.144531-32.398437 11.390625 6.585937 18.734375 33.667969-11.835937-1.320313-20.613282zm0 0" fill="#d2d2d2"/><path d="m512.011719 139.242188-47.824219-139.113282-102.941406 36.191406 48.90625 139.113282zm0 0" fill="#fd6f71"/><path d="m512.011719 139.242188-6.457031-18.785157-101.992188 36.238281 6.589844 18.738282zm0 0" fill="#e34b4c"/><path d="m94.976562 182.074219-94.9687495-53.753907 9.8749995-17.441406 94.964844 53.753906zm0 0" fill="#42c3e2"/><path d="m275.644531 42.394531c-19.597656-2.175781-38.578125 7.664063-48.089843 24.933594l-28.253907 51.289063c-4.914062 8.914062-1.667969 20.125 7.25 25.035156 8.914063 4.914062 20.125 1.667968 25.039063-7.25l19.496094-35.394532zm0 0" fill="#fbc4ac"/><path d="m278.796875 264.953125c.226563-.402344.417969-.816406.613281-1.226563.03125-.074218.074219-.140624.105469-.214843l-143.613281-81.289063-9.871094 17.441406 36.640625 20.738282 91.003906 51.511718c3.320313 1.878907 6.980469 2.617188 10.519531 2.339844.589844-.046875 1.175782-.125 1.753907-.226562 5.234375-.925782 10.027343-4.089844 12.847656-9.074219zm0 0" fill="#d9a891"/></g><g transform="matrix(0.0390625 0 0 0.0390625 77.5 340)" id="L1_14"><path d="m197.84375 368.492188h116.3125v104.621093h-116.3125zm0 0" fill="#b8b8b8"/><path d="m339.613281 450.675781h-167.226562c-12.390625 0-22.4375 10.046875-22.4375 22.4375 0 12.394531 10.046875 22.4375 22.4375 22.4375h167.226562c12.390625 0 22.4375-10.042969 22.4375-22.4375 0-12.390625-10.046875-22.4375-22.4375-22.4375zm0 0" fill="#d2d2d2"/><path d="m476.976562.5h-441.953124c-19.34375 0-35.023438 15.679688-35.023438 35.023438v327.921874c0 19.34375 15.679688 35.023438 35.023438 35.023438h441.953124c19.34375 0 35.023438-15.679688 35.023438-35.023438v-327.921874c0-19.34375-15.679688-35.023438-35.023438-35.023438zm0 0" fill="#d2d2d2"/><path d="m51.3125 51.8125h409.375v278.316406h-409.375zm0 0" fill="#efedee"/><path d="m263.601562 26.15625c0 4.199219-3.402343 7.601562-7.601562 7.601562s-7.601562-3.402343-7.601562-7.601562 3.402343-7.601562 7.601562-7.601562 7.601562 3.402343 7.601562 7.601562zm0 0" fill="#3a484a"/><path d="m271.238281 364.296875c0 8.417969-6.820312 15.242187-15.238281 15.242187s-15.238281-6.824218-15.238281-15.242187c0-8.414063 6.820312-15.238281 15.238281-15.238281s15.238281 6.824218 15.238281 15.238281zm0 0" fill="#3a484a"/><path d="m183.0625 107.59375c52.222656 0 94.554688 32.867188 94.554688 86.121094s-42.332032 96.417968-94.554688 96.417968c-52.214844 0-94.546875-43.164062-94.546875-96.417968s42.332031-86.121094 94.546875-86.121094zm0 0" fill="#fbc4ac"/><path d="m112.210938 193.714844c0-49.164063 36.074218-89.726563 82.699218-95.667969-3.882812-.496094-7.835937-.753906-11.847656-.753906-52.214844 0-94.546875 43.167969-94.546875 96.421875s42.332031 96.417968 94.546875 96.417968c4.011719 0 7.964844-.257812 11.847656-.75-46.625-5.945312-82.699218-46.507812-82.699218-95.667968zm0 0" fill="#e3b098"/><g fill="#3a484a"><path d="m132.664062 215.820312c-4.265624 0-7.726562-3.457031-7.726562-7.722656v-9.800781c0-4.269531 3.460938-7.726563 7.726562-7.726563 4.269532 0 7.726563 3.457032 7.726563 7.726563v9.800781c0 4.265625-3.457031 7.722656-7.726563 7.722656zm0 0"/><path d="m233.46875 215.820312c-4.269531 0-7.726562-3.457031-7.726562-7.722656v-9.800781c0-4.269531 3.457031-7.726563 7.726562-7.726563 4.265625 0 7.722656 3.457032 7.722656 7.726563v9.800781c0 4.265625-3.457031 7.722656-7.722656 7.722656zm0 0"/><path d="m183.066406 229.671875c-5.742187 0-11.148437-2.414063-14.832031-6.628906-2.808594-3.214844-2.480469-8.09375.734375-10.902344 3.210938-2.808594 8.089844-2.480469 10.898438.730469.75.859375 1.914062 1.347656 3.199218 1.347656s2.449219-.492188 3.199219-1.347656c2.804687-3.210938 7.6875-3.539063 10.898437-.730469 3.214844 2.808594 3.542969 7.6875.734376 10.902344-3.683594 4.214843-9.089844 6.628906-14.832032 6.628906zm0 0"/></g><path d="m93.042969 164.167969c6.492187-79.046875 38.367187-66.875 90.019531-66.875 39.050781 0 57.804688-3.910157 65.792969-6.402344 3.195312-.996094 6.632812.441406 8.152343 3.425781 6.378907 12.511719 20.609376 46.375 20.609376 99.398438 0 0-22.617188-40.722656-94.554688-40.722656-33.464844 0-30.664062 11.175781-90.019531 11.175781zm0 0" fill="#e0824a"/><path d="m163.988281 96.90625c-40.414062-1.234375-65.296875-1.539062-70.945312 67.261719 9.328125 0 17.117187-.277344 23.757812-.742188 4.535157-53.484375 20.855469-64.75 47.1875-66.519531zm0 0" fill="#cc7643"/><path d="m423.484375 141.402344h-105.644531c-4.269532 0-7.726563-3.460938-7.726563-7.726563s3.457031-7.726562 7.726563-7.726562h105.644531c4.265625 0 7.726563 3.460937 7.726563 7.726562s-3.460938 7.726563-7.726563 7.726563zm0 0" fill="#3a484a"/><path d="m423.484375 180.550781h-105.644531c-4.269532 0-7.726563-3.460937-7.726563-7.726562 0-4.269531 3.457031-7.726563 7.726563-7.726563h105.644531c4.265625 0 7.726563 3.457032 7.726563 7.726563 0 4.265625-3.460938 7.726562-7.726563 7.726562zm0 0" fill="#3a484a"/><path d="m371.972656 219.695312h-54.132812c-4.269532 0-7.726563-3.457031-7.726563-7.726562 0-4.265625 3.457031-7.726562 7.726563-7.726562h54.132812c4.269532 0 7.726563 3.460937 7.726563 7.726562 0 4.269531-3.457031 7.726562-7.726563 7.726562zm0 0" fill="#3a484a"/></g><g transform="matrix(0.07812495529651642 0 0 0.07812495529651642 67.5 67.5)" id="L1_15"><path d="m512 150.546875v299.484375c0 33.34375-27.03125 60.378906-60.378906 60.378906h-320.734375c-33.347657 0-60.378907-27.035156-60.378907-60.378906v-299.484375zm0 0" fill="#efedee"/><path d="m70.507812 450.03125c0 18.851562 8.644532 35.683594 22.179688 46.753906h295.019531c17.03125 0 33.195313-6.457031 45.515625-18.183594 37.769532-35.953124 62.535156-87.003906 78.777344-138.144531v-189.910156h-441.492188zm0 0" fill="#d2d2d2"/><path d="m291.253906 91.351562-220.746094 59.195313s-2.121093 158.789063-65.246093 261.769531c-14.371094 23.441406 2.375 53.566406 29.871093 53.566406h352.574219c9.011719 0 17.683594-3.453124 24.207031-9.664062 97.238282-92.566406 100.085938-305.671875 100.085938-305.671875zm0 0" fill="#efedee"/><path d="m512 92.535156v58.011719h-441.492188v-58.011719c0-33.347656 27.03125-60.378906 60.378907-60.378906h320.734375c33.347656 0 60.378906 27.03125 60.378906 60.378906zm0 0" fill="#fd6f71"/><g fill="#3a484a"><path d="m153.394531 0c-10.644531 0-19.273437 8.628906-19.273437 19.273438v25.761718c0 10.644532 8.628906 19.273438 19.273437 19.273438s19.273438-8.628906 19.273438-19.273438v-25.761718c0-10.644532-8.628907-19.273438-19.273438-19.273438zm0 0"/><path d="m246.378906 0c-10.644531 0-19.273437 8.628906-19.273437 19.273438v25.761718c0 10.644532 8.628906 19.273438 19.273437 19.273438 10.644532 0 19.273438-8.628906 19.273438-19.273438v-25.761718c0-10.644532-8.628906-19.273438-19.273438-19.273438zm0 0"/><path d="m339.363281 0c-10.644531 0-19.273437 8.628906-19.273437 19.273438v25.761718c0 10.644532 8.628906 19.273438 19.273437 19.273438s19.273438-8.628906 19.273438-19.273438v-25.761718c0-10.644532-8.628907-19.273438-19.273438-19.273438zm0 0"/><path d="m432.347656 0c-10.644531 0-19.273437 8.628906-19.273437 19.273438v25.761718c0 10.644532 8.628906 19.273438 19.273437 19.273438 10.644532 0 19.273438-8.628906 19.273438-19.273438v-25.761718c0-10.644532-8.628906-19.273438-19.273438-19.273438zm0 0"/></g><path d="m248.375 425.007812c259.820312-136.179687 97.65625-292.070312 0-196.632812-97.65625-95.4375-259.816406 60.453125 0 196.632812zm0 0" fill="#fd6f71"/><path d="m181.210938 311.257812c-4.265626 0-7.726563-3.460937-7.726563-7.726562v-12.15625c0-4.265625 3.460937-7.726562 7.726563-7.726562 4.269531 0 7.726562 3.460937 7.726562 7.726562v12.15625c0 4.265625-3.457031 7.726562-7.726562 7.726562zm0 0" fill="#3a484a"/><path d="m315.539062 311.257812c-4.265624 0-7.726562-3.460937-7.726562-7.726562v-12.15625c0-4.265625 3.460938-7.726562 7.726562-7.726562 4.269532 0 7.726563 3.460937 7.726563 7.726562v12.15625c0 4.265625-3.457031 7.726562-7.726563 7.726562zm0 0" fill="#3a484a"/><path d="m248.375 317.742188c-8.691406 0-16.851562-3.632813-22.394531-9.972657-2.808594-3.214843-2.480469-8.097656.734375-10.902343 3.210937-2.808594 8.09375-2.484376 10.902344.730468 2.605468 2.984375 6.527343 4.691406 10.757812 4.691406s8.152344-1.707031 10.761719-4.691406c2.808593-3.214844 7.6875-3.539062 10.902343-.730468 3.210938 2.804687 3.539063 7.6875.730469 10.902343-5.539062 6.339844-13.703125 9.972657-22.394531 9.972657zm0 0" fill="#3a484a"/></g><g transform="matrix(0.13206017156295854 -0.03538541632261026 0.03538541632261026 0.13206017156295854 131.9818750030358 149.23301295777532)" id="L1_16"><path d="m27.707031 283.664062c-10.363281 51.660157 3.53125 81.917969 27.410157 88.058594 40.042968 10.300782 8.660156 53.085938 40.042968 70.496094l61.945313-55.910156-85.503907-125.542969zm0 0" fill="#fadc60"/><path d="m96.324219 371.722656c-23.878907-6.140625-37.773438-36.398437-27.410157-88.058594l13.488282-7.039062-10.800782-15.859375-43.894531 22.898437c-10.363281 51.660157 3.53125 81.917969 27.410157 88.058594 40.042968 10.300782 8.660156 53.085938 40.042968 70.496094l25.84375-23.324219c-3.105468-18.691406 2.210938-40.253906-24.679687-47.171875zm0 0" fill="#f2c42c"/><path d="m426.609375 283.664062c10.363281 51.660157-3.53125 81.914063-27.410156 88.058594-40.042969 10.300782-8.660157 53.085938-40.042969 70.496094l-61.945312-55.910156 85.503906-125.542969zm0 0" fill="#fadc60"/><path d="m17.3125 219.429688c0-58.375 21.671875-113.3125 61.019531-154.703126 39.675781-41.738281 92.53125-64.726562 148.828125-64.726562 56.292969 0 109.148438 22.988281 148.824219 64.726562 39.347656 41.390626 61.019531 96.328126 61.019531 154.703126zm0 0" fill="#fadc60"/><path d="m252.914062 1.628906c-8.480468-1.078125-17.078124-1.628906-25.753906-1.628906-56.296875 0-109.152344 22.988281-148.828125 64.726562-39.347656 41.390626-61.019531 96.328126-61.019531 154.703126l56.371094-31.265626c0-58.375 16.808594-82.046874 56.15625-123.4375 33.5625-35.304687 76.550781-57.1875 123.074218-63.097656zm0 0" fill="#f2c42c"/><path d="m.5 243.640625c0 23.773437 19.273438 43.046875 43.046875 43.046875s22.441406-19.273438 22.441406-43.046875 1.179688-43.042969-22.59375-43.042969c-23.773437 0-42.894531 19.269532-42.894531 43.042969zm0 0" fill="#d9a891"/><path d="m453.816406 243.640625c0 23.773437-19.269531 43.046875-43.042968 43.046875-23.773438 0-43.046876-19.273438-43.046876-43.046875s19.425782-43.042969 43.195313-43.042969c23.777344 0 42.894531 19.269532 42.894531 43.042969zm0 0" fill="#d9a891"/><path d="m136.917969 388.878906s-58.0625 43.757813-58.0625 123.121094h296.605469c0-79.363281-58.0625-123.121094-58.0625-123.121094zm0 0" fill="#e0824a"/><g fill="#efedee"><path d="m164.421875 442.652344c0-2.304688 2.449219-3.460938 4.902344-3.460938h14.785156c7.210937 0 14.425781 2.597656 14.425781 12.839844 0 5.839844-2.308594 9.664062-6.132812 11.320312 4.402344 1.660157 7.429687 4.328126 7.429687 11.539063v1.515625c0 11.394531-6.347656 15.507812-14.496093 15.507812h-16.011719c-3.027344 0-4.90625-1.589843-4.90625-3.390624v-45.871094zm11.175781 16.371094h7.574219c2.738281 0 4.109375-2.523438 4.109375-4.976563 0-2.523437-1.371094-5.046875-4.109375-5.046875h-7.574219zm7.214844 23.078124c3.605469 0 5.769531-2.019531 5.769531-6.632812v-1.152344c0-4.90625-2.164062-6.636718-5.769531-6.636718h-7.214844v14.425781h7.214844zm0 0"/><path d="m205.667969 442.652344c0-2.304688 2.453125-3.460938 4.90625-3.460938h25.023437c2.378906 0 3.390625 2.527344 3.390625 4.832032 0 2.667968-1.226562 4.976562-3.390625 4.976562h-18.679687v12.1875h10.890625c2.164062 0 3.390625 2.09375 3.390625 4.402344 0 1.945312-1.011719 4.253906-3.390625 4.253906h-10.890625v18.605469c0 2.308593-2.8125 3.464843-5.625 3.464843s-5.625-1.15625-5.625-3.464843zm0 0"/><path d="m242.804688 442.652344c0-2.304688 2.453124-3.460938 4.90625-3.460938h25.023437c2.382813 0 3.390625 2.527344 3.390625 4.832032 0 2.667968-1.226562 4.976562-3.390625 4.976562h-18.679687v12.1875h10.890624c2.164063 0 3.390626 2.09375 3.390626 4.402344 0 1.945312-1.011719 4.253906-3.390626 4.253906h-10.890624v18.605469c0 2.308593-2.8125 3.464843-5.625 3.464843s-5.625-1.15625-5.625-3.464843zm0 0"/><path d="m289.894531 486.789062c0 2.957032-2.523437 5.554688-5.480469 5.554688-3.171874 0-5.550781-2.597656-5.550781-5.554688 0-3.027343 2.378907-5.550781 5.550781-5.550781 2.957032 0 5.480469 2.523438 5.480469 5.550781zm-1.367187-13.699218c0 2.234375-2.453125 3.171875-4.183594 3.171875-2.308594 0-4.253906-.9375-4.253906-3.171875 0-8.582032-1.011719-20.917969-1.011719-29.5 0-2.808594 2.308594-4.398438 5.265625-4.398438 2.8125 0 5.191406 1.585938 5.191406 4.398438 0 8.582031-1.007812 20.914062-1.007812 29.5zm0 0"/></g><path d="m410.945312 200.574219-.019531.023437s-29.582031-3.316406-53.621093-34.222656c-24.039063-30.90625-23.710938-43.269531-68.433594-54.601562-34.683594-8.789063-49.976563-25.574219-56.65625-37.523438-2.203125-3.945312-7.910156-3.945312-10.117188 0-6.675781 11.949219-21.96875 28.734375-56.65625 37.523438-44.71875 11.332031-44.394531 23.695312-68.429687 54.601562-24.039063 30.90625-53.621094 34.222656-53.621094 34.222656l-.023437-.015625c-.542969 6.078125-.832032 12.234375-.832032 18.464844v.191406.191407c0 107.257812 82.65625 194.207031 184.621094 194.207031s184.625-86.949219 184.625-194.207031c0-.066407 0-.128907 0-.191407 0-.066406 0-.128906 0-.191406 0-6.230469-.289062-12.390625-.835938-18.472656zm0 0" fill="#e3b098"/><path d="m73.441406 219.429688c0-.066407 0-.128907 0-.191407 0-.066406 0-.128906 0-.191406 0-3.316406.082032-17.457031.242188-30.886719-16.445313 10.878906-30.289063 12.4375-30.289063 12.4375l-.023437-.015625c-.546875 6.078125-.835938 12.234375-.835938 18.464844v.191406.191407c0 107.257812 82.660156 194.207031 184.625 194.207031 5.203125 0 10.355469-.238281 15.449219-.683594-94.730469-8.261719-169.167969-91.742187-169.167969-193.523437zm0 0" fill="#d9a891"/><path d="m321.148438 250.101562c-4.265626 0-7.726563-3.460937-7.726563-7.726562v-18.277344c0-4.265625 3.460937-7.722656 7.726563-7.722656 4.269531 0 7.726562 3.457031 7.726562 7.722656v18.277344c0 4.265625-3.460938 7.726562-7.726562 7.726562zm0 0" fill="#3a484a"/><path d="m333.59375 276.964844h-24.890625c-4.269531 0-7.726563-3.460938-7.726563-7.726563 0-4.269531 3.457032-7.726562 7.726563-7.726562h24.890625c4.269531 0 7.726562 3.457031 7.726562 7.726562 0 4.265625-3.460937 7.726563-7.726562 7.726563zm0 0" fill="#f98084"/><path d="m133.167969 250.101562c-4.269531 0-7.726563-3.460937-7.726563-7.726562v-18.277344c0-4.265625 3.457032-7.722656 7.726563-7.722656s7.726562 3.457031 7.726562 7.722656v18.277344c0 4.265625-3.457031 7.726562-7.726562 7.726562zm0 0" fill="#3a484a"/><path d="m145.613281 276.964844h-24.890625c-4.265625 0-7.726562-3.460938-7.726562-7.726563 0-4.269531 3.460937-7.726562 7.726562-7.726562h24.890625c4.269531 0 7.726563 3.457031 7.726563 7.726562 0 4.265625-3.457032 7.726563-7.726563 7.726563zm0 0" fill="#f98084"/><path d="m227.15625 275.929688c-8.777344 0-17.027344-3.671876-22.625-10.078126-2.8125-3.210937-2.484375-8.09375.730469-10.902343 3.210937-2.808594 8.089843-2.480469 10.902343.734375 2.664063 3.046875 6.671876 4.792968 10.992188 4.792968 4.324219 0 8.332031-1.746093 10.996094-4.792968 2.808594-3.214844 7.6875-3.542969 10.902344-.734375 3.210937 2.808593 3.539062 7.691406.730468 10.902343-5.597656 6.40625-13.84375 10.078126-22.628906 10.078126zm0 0" fill="#3a484a"/></g><g transform="matrix(0.0390625 0 0 0.0390625 252.5 340)" id="L1_17"><path d="m433.617188 280.117188c0 82.234374.710937 157.519531-76.8125 157.519531h-35.65625l-31.777344-72.59375 102.90625-100.558594zm0 0" fill="#e0824a"/><path d="m20.699219 280.117188c0 82.234374-.710938 157.519531 76.8125 157.519531h35.65625l31.777343-72.59375-102.90625-100.558594zm0 0" fill="#e0824a"/><path d="m61.90625 280.117188 11.628906-4.398438-11.496094-11.234375-41.339843 15.632813c0 82.234374-.710938 157.519531 76.8125 157.519531h35.65625l.066406-.144531c-71.988281-3.523438-71.328125-77.132813-71.328125-157.375zm0 0" fill="#cc7643"/><path d="m17.3125 219.429688c0-58.375 21.671875-113.3125 61.019531-154.703126 39.675781-41.738281 92.53125-64.726562 148.828125-64.726562 56.292969 0 109.148438 22.988281 148.824219 64.726562 39.347656 41.390626 61.019531 96.328126 61.019531 154.703126zm0 0" fill="#e0824a"/><path d="m252.914062 1.628906c-8.480468-1.078125-17.078124-1.628906-25.753906-1.628906-56.296875 0-109.152344 22.988281-148.828125 64.726562-39.347656 41.390626-61.019531 96.328126-61.019531 154.703126h51.511719c0-58.375 21.667969-113.3125 61.015625-154.703126 33.5625-35.304687 76.550781-57.1875 123.074218-63.097656zm0 0" fill="#cc7643"/><path d="m453.816406 243.640625c0 23.773437-19.273437 43.046875-43.042968 43.046875-23.773438 0-43.046876-19.273438-43.046876-43.046875s19.273438-43.042969 43.046876-43.042969c23.769531 0 43.042968 19.269532 43.042968 43.042969zm0 0" fill="#e3b098"/><path d="m.5 243.640625c0 23.773437 19.273438 43.046875 43.046875 43.046875s22.441406-19.273438 22.441406-43.046875 1.332031-43.042969-22.441406-43.042969-43.046875 19.269532-43.046875 43.042969zm0 0" fill="#e3b098"/><path d="m136.917969 388.878906s-58.0625 43.757813-58.0625 123.121094h296.605469c0-79.363281-58.0625-123.121094-58.0625-123.121094zm0 0" fill="#fadc60"/><path d="m167.824219 388.878906h-30.90625s-58.0625 43.757813-58.0625 123.121094h30.90625c0-79.363281 58.0625-123.121094 58.0625-123.121094zm0 0" fill="#f2c42c"/><path d="m281.300781 398.503906c0 29.902344-24.242187 54.140625-54.140625 54.140625-29.902344 0-54.144531-24.238281-54.144531-54.140625s24.242187-54.144531 54.144531-54.144531c29.898438 0 54.140625 24.242187 54.140625 54.144531zm0 0" fill="#e3b098"/><path d="m167.230469 92.152344c-2.328125-2.175782-6.035157-1.796875-7.890625.792968-30.949219 43.183594-115.488282 107.304688-115.9375 107.644532-.566406 6.199218-.867188 12.480468-.867188 18.839844 0 107.257812 82.660156 194.207031 184.625 194.207031s184.621094-86.949219 184.621094-194.207031c0-6.355469-.300781-12.636719-.867188-18.835938-149.585937-28.296875-225.589843-91.554688-243.683593-108.441406zm0 0" fill="#fbc4ac"/><path d="m73.441406 219.429688c0-3.753907.105469-24.964844.304688-43-17.386719 14.332031-30.167969 24.027343-30.34375 24.160156-.566406 6.199218-.867188 12.484375-.867188 18.839844 0 107.257812 82.660156 194.207031 184.625 194.207031 5.203125 0 10.355469-.238281 15.449219-.683594-94.730469-8.261719-169.167969-91.742187-169.167969-193.523437zm0 0" fill="#e3b098"/><path d="m321.148438 250.101562c-4.265626 0-7.726563-3.460937-7.726563-7.726562v-18.277344c0-4.265625 3.460937-7.722656 7.726563-7.722656 4.265624 0 7.726562 3.457031 7.726562 7.722656v18.277344c0 4.265625-3.460938 7.726562-7.726562 7.726562zm0 0" fill="#3a484a"/><path d="m333.59375 276.964844h-24.890625c-4.269531 0-7.726563-3.460938-7.726563-7.726563 0-4.269531 3.457032-7.726562 7.726563-7.726562h24.890625c4.265625 0 7.726562 3.457031 7.726562 7.726562 0 4.265625-3.460937 7.726563-7.726562 7.726563zm0 0" fill="#f98084"/><path d="m133.167969 250.101562c-4.265625 0-7.726563-3.460937-7.726563-7.726562v-18.277344c0-4.265625 3.460938-7.722656 7.726563-7.722656 4.269531 0 7.726562 3.457031 7.726562 7.722656v18.277344c0 4.265625-3.457031 7.726562-7.726562 7.726562zm0 0" fill="#3a484a"/><path d="m145.613281 276.964844h-24.890625c-4.265625 0-7.726562-3.460938-7.726562-7.726563 0-4.269531 3.460937-7.726562 7.726562-7.726562h24.890625c4.269531 0 7.726563 3.457031 7.726563 7.726562 0 4.265625-3.457032 7.726563-7.726563 7.726563zm0 0" fill="#f98084"/><path d="m227.160156 275.929688c-8.78125 0-17.03125-3.671876-22.628906-10.078126-2.808594-3.214843-2.480469-8.09375.730469-10.902343 3.214843-2.808594 8.09375-2.480469 10.902343.730469 2.664063 3.050781 6.671876 4.796874 10.996094 4.796874 4.320313 0 8.328125-1.746093 10.992188-4.796874 2.808594-3.210938 7.6875-3.539063 10.902344-.730469 3.214843 2.808593 3.539062 7.6875.734374 10.902343-5.601562 6.40625-13.847656 10.078126-22.628906 10.078126zm0 0" fill="#3a484a"/><path d="m430.929688 385.546875c0 46.980469-38.085938 85.070313-85.070313 85.070313s-85.070313-38.089844-85.070313-85.070313c0-46.984375 38.085938-85.074219 85.070313-85.074219s85.070313 38.089844 85.070313 85.074219zm0 0" fill="#42c3e2"/><path d="m388.074219 377.820312h-34.488281v-34.488281c0-4.265625-3.460938-7.726562-7.726563-7.726562-4.269531 0-7.726563 3.460937-7.726563 7.726562v34.488281h-34.488281c-4.265625 0-7.726562 3.457032-7.726562 7.726563 0 4.265625 3.460937 7.726563 7.726562 7.726563h34.488281v34.488281c0 4.265625 3.457032 7.726562 7.726563 7.726562 4.265625 0 7.726563-3.460937 7.726563-7.726562v-34.488281h34.488281c4.265625 0 7.726562-3.460938 7.726562-7.726563 0-4.269531-3.460937-7.726563-7.726562-7.726563zm0 0" fill="#efedee"/></g><g transform="matrix(0.09765625 0 0 0.09765625 62.5 237.5)" id="L1_18"><path d="m382.699219 29.5c-69.152344 0-125.207031 36.554688-125.207031 107.074219s56.054687 127.675781 125.207031 127.675781c69.144531 0 125.195312-57.15625 125.195312-127.675781s-56.050781-107.074219-125.195312-107.074219zm0 0" fill="#fbc4ac"/><path d="m282.214844 136.574219c0-66.265625 49.496094-120.730469 112.84375-127.058594-4.066406-.410156-8.1875-.621094-12.359375-.621094-69.152344 0-125.207031 57.160157-125.207031 127.679688s56.054687 127.675781 125.207031 127.675781c4.171875 0 8.292969-.210938 12.359375-.617188-63.347656-6.332031-112.84375-60.796874-112.84375-127.058593zm0 0" fill="#e3b098"/><path d="m449.433594 163.34375c-4.269532 0-7.726563-3.457031-7.726563-7.726562v-12.976563c0-4.265625 3.457031-7.726563 7.726563-7.726563 4.269531 0 7.726562 3.460938 7.726562 7.726563v12.976563c0 4.269531-3.457031 7.726562-7.726562 7.726562zm0 0" fill="#3a484a"/><path d="m458.269531 182.417969h-17.671875c-4.269531 0-7.726562-3.460938-7.726562-7.726563s3.457031-7.726562 7.726562-7.726562h17.671875c4.269531 0 7.726563 3.460937 7.726563 7.726562s-3.457032 7.726563-7.726563 7.726563zm0 0" fill="#f98084"/><path d="m315.953125 163.34375c-4.269531 0-7.726563-3.457031-7.726563-7.726562v-12.976563c0-4.265625 3.457032-7.726563 7.726563-7.726563s7.726563 3.460938 7.726563 7.726563v12.976563c0 4.269531-3.457032 7.726562-7.726563 7.726562zm0 0" fill="#3a484a"/><path d="m324.789062 182.417969h-17.671874c-4.269532 0-7.726563-3.460938-7.726563-7.726563s3.457031-7.726562 7.726563-7.726562h17.671874c4.269532 0 7.726563 3.460937 7.726563 7.726562s-3.457031 7.726563-7.726563 7.726563zm0 0" fill="#f98084"/><path d="m382.691406 181.683594c-6.882812 0-13.351562-2.886719-17.753906-7.921875-2.808594-3.214844-2.476562-8.09375.734375-10.902344 3.214844-2.808594 8.09375-2.480469 10.902344.734375 1.464843 1.675781 3.695312 2.636719 6.117187 2.636719s4.65625-.960938 6.121094-2.640625c2.808594-3.210938 7.6875-3.539063 10.902344-.730469s3.542968 7.691406.730468 10.902344c-4.398437 5.035156-10.871093 7.921875-17.753906 7.921875zm0 0" fill="#3a484a"/><path d="m501.902344 97.449219c-8.597656-104.671875-50.804688-88.554688-119.203125-88.554688-51.710938 0-76.542969-5.175781-87.121094-8.476562-4.230469-1.324219-8.785156.582031-10.796875 4.53125-8.445312 16.574219-27.289062 61.410156-27.289062 131.625 0 0 29.945312-53.925781 125.203124-53.925781 44.316407 0 40.609376 14.800781 119.207032 14.800781zm0 0" fill="#c86d5c"/><path d="m309.507812 4.949219c.195313-.382813.417969-.742188.660157-1.082031-6.53125-1.191407-11.265625-2.414063-14.589844-3.449219-4.230469-1.324219-8.785156.582031-10.796875 4.53125-8.445312 16.574219-27.289062 61.410156-27.289062 131.625 0 0 7.167968-12.894531 25.621093-26.070313 3.832031-55.308594 19.042969-91.136718 26.394531-105.554687zm0 0" fill="#ad4f3d"/><path d="m.589844 379.375v82.308594c0 20.503906 15.417968 37.734375 35.800781 40l59.160156 6.582031zm0 0" fill="#3a484a"/><path d="m250.808594 379.375v82.308594c0 20.503906-15.414063 37.734375-35.796875 40l-59.160157 6.582031zm0 0" fill="#3a484a"/><path d="m250.808594 379.375c-.007813.011719-.007813.011719-.007813.011719l-127.878906-96.675781-122.320313 96.675781-.011718-.011719c-.058594 1.644531-.089844 3.285156-.089844 4.941406 0 70.519532 56.050781 127.683594 125.199219 127.683594 69.152343 0 125.203125-57.164062 125.203125-127.683594 0-1.652344-.03125-3.296875-.09375-4.941406zm0 0" fill="#fbc4ac"/><path d="m21.300781 375.308594c-6.761719 1.890625-13.679687 3.300781-20.699219 4.078125l-.011718-.011719c-.058594 1.644531-.089844 3.285156-.089844 4.941406 0 70.519532 56.050781 127.683594 125.199219 127.683594 3.574219 0 7.109375-.160156 10.605469-.460938-62.175782-5.679687-111.558594-63.875-115.003907-136.230468zm0 0" fill="#e3b098"/><path d="m58.960938 411.085938c-4.265626 0-7.726563-3.457032-7.726563-7.726563v-12.976563c0-4.265624 3.460937-7.726562 7.726563-7.726562 4.269531 0 7.726562 3.460938 7.726562 7.726562v12.976563c0 4.269531-3.457031 7.726563-7.726562 7.726563zm0 0" fill="#3a484a"/><path d="m67.796875 430.160156h-17.671875c-4.269531 0-7.726562-3.457031-7.726562-7.726562 0-4.265625 3.457031-7.726563 7.726562-7.726563h17.671875c4.269531 0 7.726563 3.460938 7.726563 7.726563 0 4.269531-3.457032 7.726562-7.726563 7.726562zm0 0" fill="#f98084"/><path d="m192.441406 411.085938c-4.265625 0-7.726562-3.457032-7.726562-7.726563v-12.976563c0-4.265624 3.460937-7.726562 7.726562-7.726562 4.269532 0 7.726563 3.460938 7.726563 7.726562v12.976563c0 4.269531-3.457031 7.726563-7.726563 7.726563zm0 0" fill="#3a484a"/><path d="m201.277344 430.160156h-17.671875c-4.269531 0-7.726563-3.457031-7.726563-7.726562 0-4.265625 3.457032-7.726563 7.726563-7.726563h17.671875c4.269531 0 7.726562 3.460938 7.726562 7.726563 0 4.269531-3.457031 7.726562-7.726562 7.726562zm0 0" fill="#f98084"/><path d="m125.699219 429.429688c-6.882813 0-13.351563-2.886719-17.753907-7.925782-2.808593-3.210937-2.476562-8.09375.734376-10.902344 3.210937-2.804687 8.09375-2.476562 10.902343.734376 1.464844 1.679687 3.695313 2.640624 6.117188 2.640624s4.65625-.960937 6.121093-2.640624c2.808594-3.210938 7.691407-3.539063 10.902344-.730469 3.214844 2.808593 3.542969 7.6875.734375 10.902343-4.402343 5.035157-10.875 7.921876-17.757812 7.921876zm0 0" fill="#3a484a"/><path d="m.589844 379.375.011718.011719c67.195313-7.433594 125.097657-72.335938 125.097657-72.335938s57.90625 64.902344 125.101562 72.335938c0 0 0 0 .007813-.011719-2.542969-68.226562-57.578125-122.734375-125.109375-122.734375-67.527344 0-122.5625 54.507813-125.109375 122.734375zm0 0" fill="#3a484a"/><path d="m136.519531 257.121094c-3.566406-.3125-7.171875-.480469-10.820312-.480469-67.527344 0-122.5625 54.507813-125.109375 122.738281l.011718.007813c7.425782-.820313 13.566407-2.019531 20.699219-4.078125 4.433594-62.507813 54.144531-112.859375 115.21875-118.1875zm0 0" fill="#323e40"/><path d="m203.238281 174.039062v-77.175781c0-27.570312-22.347656-49.921875-49.921875-49.921875h-102.894531c-27.570313 0-49.921875 22.351563-49.921875 49.921875v70.527344c0 27.570313 22.351562 49.917969 49.921875 49.917969h176.726563zm0 0" fill="#58b78c"/><g fill="#efedee"><path d="m155.757812 104.589844h-107.777343c-4.265625 0-7.726563-3.460938-7.726563-7.726563 0-4.269531 3.460938-7.726562 7.726563-7.726562h107.777343c4.269532 0 7.726563 3.457031 7.726563 7.726562 0 4.265625-3.457031 7.726563-7.726563 7.726563zm0 0"/><path d="m155.757812 139.851562h-107.777343c-4.265625 0-7.726563-3.457031-7.726563-7.726562 0-4.265625 3.460938-7.726562 7.726563-7.726562h107.777343c4.269532 0 7.726563 3.460937 7.726563 7.726562 0 4.269531-3.457031 7.726562-7.726563 7.726562zm0 0"/><path d="m115.195312 175.117188h-67.214843c-4.265625 0-7.726563-3.460938-7.726563-7.726563 0-4.269531 3.460938-7.726563 7.726563-7.726563h67.214843c4.265626 0 7.726563 3.457032 7.726563 7.726563 0 4.265625-3.460937 7.726563-7.726563 7.726563zm0 0"/></g><path d="m305.15625 426.234375v-77.179687c0-27.570313 22.351562-49.917969 49.921875-49.917969h102.894531c27.570313 0 49.921875 22.347656 49.921875 49.917969v70.527343c0 27.570313-22.351562 49.921875-49.921875 49.921875h-176.726562zm0 0" fill="#f2c42c"/><path d="m460.414062 356.785156h-107.777343c-4.269531 0-7.726563-3.460937-7.726563-7.726562 0-4.269532 3.457032-7.726563 7.726563-7.726563h107.777343c4.269532 0 7.726563 3.457031 7.726563 7.726563 0 4.265625-3.460937 7.726562-7.726563 7.726562zm0 0" fill="#efedee"/><path d="m460.414062 392.046875h-107.777343c-4.269531 0-7.726563-3.460937-7.726563-7.726563 0-4.265624 3.457032-7.726562 7.726563-7.726562h107.777343c4.269532 0 7.726563 3.460938 7.726563 7.726562 0 4.265626-3.460937 7.726563-7.726563 7.726563zm0 0" fill="#efedee"/><path d="m460.414062 427.3125h-67.214843c-4.265625 0-7.726563-3.460938-7.726563-7.726562 0-4.269532 3.460938-7.726563 7.726563-7.726563h67.214843c4.265626 0 7.726563 3.457031 7.726563 7.726563 0 4.265624-3.460937 7.726562-7.726563 7.726562zm0 0" fill="#efedee"/></g><g transform="matrix(0.078125 0 0 0.078125 242.5 67.5)" id="L1_19"><path d="m370.632812 463.839844c0-26.597656-82.96875-48.15625-185.316406-48.15625s-185.316406 21.558594-185.316406 48.15625 82.96875 48.160156 185.316406 48.160156 185.316406-21.5625 185.316406-48.160156zm0 0" fill="#e34b4c"/><path d="m302.671875 52.308594c-29.753906-33.085938-72.855469-52.308594-117.355469-52.308594s-87.597656 19.222656-117.355468 52.308594c-76.320313 84.851562-37.578126 211.230468 15.164062 296.101562 28.601562 46.027344 63.9375 87.6875 102.191406 125.945313 38.253906-38.257813 73.589844-79.917969 102.195313-125.945313 52.738281-84.871094 91.480469-211.25 15.160156-296.101562zm0 0" fill="#fd6f71"/><path d="m309.976562 158.648438c0 68.847656-55.8125 124.660156-124.660156 124.660156s-124.660156-55.8125-124.660156-124.660156c0-68.847657 55.8125-124.660157 124.660156-124.660157s124.660156 55.8125 124.660156 124.660157zm0 0" fill="#efedee"/><path d="m185.320312 105.113281c-44.550781 0-80.664062 16.21875-80.664062 61.648438 0 45.433593 36.113281 82.253906 80.664062 82.253906 44.542969 0 80.652344-36.820313 80.652344-82.253906 0-45.429688-36.109375-61.648438-80.652344-61.648438zm0 0" fill="#fbc4ac"/><g fill="#3a484a"><path d="m228.3125 186.757812c-4.269531 0-7.726562-3.460937-7.726562-7.726562v-8.359375c0-4.269531 3.457031-7.726563 7.726562-7.726563 4.265625 0 7.726562 3.457032 7.726562 7.726563v8.359375c0 4.265625-3.460937 7.726562-7.726562 7.726562zm0 0"/><path d="m142.320312 186.757812c-4.265624 0-7.726562-3.460937-7.726562-7.726562v-8.359375c0-4.269531 3.460938-7.726563 7.726562-7.726563 4.265626 0 7.726563 3.457032 7.726563 7.726563v8.359375c0 4.265625-3.460937 7.726562-7.726563 7.726562zm0 0"/><path d="m185.316406 199.882812c-7.535156 0-14.617187-3.15625-19.429687-8.664062-2.808594-3.210938-2.480469-8.09375.730469-10.902344 3.214843-2.808594 8.09375-2.480468 10.902343.730469 1.878907 2.148437 4.71875 3.382813 7.796875 3.382813 3.074219 0 5.917969-1.234376 7.796875-3.382813 2.808594-3.210937 7.6875-3.539063 10.902344-.730469 3.210937 2.808594 3.539063 7.691406.730469 10.902344-4.8125 5.507812-11.894532 8.664062-19.429688 8.664062zm0 0"/></g><path d="m262.113281 141.554688c-5.539062-67.429688-32.726562-57.046876-76.792969-57.046876-33.3125 0-49.3125-3.335937-56.128906-5.464843-2.722656-.847657-5.65625.378906-6.953125 2.921875-5.441406 10.675781-17.582031 39.5625-17.582031 84.796875 0 0 19.292969-34.742188 80.664062-34.742188 28.546876.003907 26.160157 9.535157 76.792969 9.535157zm0 0" fill="#c86d5c"/></g></defs><g fi:class="KUsePattern"><pattern id="pattern_L1_10" width="350" height="350" patternUnits="userSpaceOnUse"><use xlink:href="#L1_10" x="-350" y="-350"/><use xlink:href="#L1_10" x="0" y="-350"/><use xlink:href="#L1_10" x="350" y="-350"/><use xlink:href="#L1_10" x="-350" y="0"/><use xlink:href="#L1_10" x="0" y="0"/><use xlink:href="#L1_10" x="350" y="0"/><use xlink:href="#L1_10" x="-350" y="350"/><use xlink:href="#L1_10" x="0" y="350"/><use xlink:href="#L1_10" x="350" y="350"/></pattern><rect x="0" y="0" width="100%" height="100%" fill="url(#pattern_L1_10)"/></g><g fi:class="KUsePattern"><pattern id="pattern_L1_11" width="350" height="350" patternUnits="userSpaceOnUse"><use xlink:href="#L1_11" x="-350" y="-350"/><use xlink:href="#L1_11" x="0" y="-350"/><use xlink:href="#L1_11" x="350" y="-350"/><use xlink:href="#L1_11" x="-350" y="0"/><use xlink:href="#L1_11" x="0" y="0"/><use xlink:href="#L1_11" x="350" y="0"/><use xlink:href="#L1_11" x="-350" y="350"/><use xlink:href="#L1_11" x="0" y="350"/><use xlink:href="#L1_11" x="350" y="350"/></pattern><rect x="0" y="0" width="100%" height="100%" fill="url(#pattern_L1_11)"/></g><g fi:class="KUsePattern"><pattern id="pattern_L1_12" width="350" height="350" patternUnits="userSpaceOnUse"><use xlink:href="#L1_12" x="-350" y="-350"/><use xlink:href="#L1_12" x="0" y="-350"/><use xlink:href="#L1_12" x="350" y="-350"/><use xlink:href="#L1_12" x="-350" y="0"/><use xlink:href="#L1_12" x="0" y="0"/><use xlink:href="#L1_12" x="350" y="0"/><use xlink:href="#L1_12" x="-350" y="350"/><use xlink:href="#L1_12" x="0" y="350"/><use xlink:href="#L1_12" x="350" y="350"/></pattern><rect x="0" y="0" width="100%" height="100%" fill="url(#pattern_L1_12)"/></g><g fi:class="KUsePattern"><pattern id="pattern_L1_13" width="350" height="350" patternUnits="userSpaceOnUse"><use xlink:href="#L1_13" x="-350" y="-350"/><use xlink:href="#L1_13" x="0" y="-350"/><use xlink:href="#L1_13" x="350" y="-350"/><use xlink:href="#L1_13" x="-350" y="0"/><use xlink:href="#L1_13" x="0" y="0"/><use xlink:href="#L1_13" x="350" y="0"/><use xlink:href="#L1_13" x="-350" y="350"/><use xlink:href="#L1_13" x="0" y="350"/><use xlink:href="#L1_13" x="350" y="350"/></pattern><rect x="0" y="0" width="100%" height="100%" fill="url(#pattern_L1_13)"/></g><g fi:class="KUsePattern"><pattern id="pattern_L1_14" width="350" height="350" patternUnits="userSpaceOnUse"><use xlink:href="#L1_14" x="-350" y="-350"/><use xlink:href="#L1_14" x="0" y="-350"/><use xlink:href="#L1_14" x="350" y="-350"/><use xlink:href="#L1_14" x="-350" y="0"/><use xlink:href="#L1_14" x="0" y="0"/><use xlink:href="#L1_14" x="350" y="0"/><use xlink:href="#L1_14" x="-350" y="350"/><use xlink:href="#L1_14" x="0" y="350"/><use xlink:href="#L1_14" x="350" y="350"/></pattern><rect x="0" y="0" width="100%" height="100%" fill="url(#pattern_L1_14)"/></g><g fi:class="KUsePattern"><pattern id="pattern_L1_15" width="350" height="350" patternUnits="userSpaceOnUse"><use xlink:href="#L1_15" x="-350" y="-350"/><use xlink:href="#L1_15" x="0" y="-350"/><use xlink:href="#L1_15" x="350" y="-350"/><use xlink:href="#L1_15" x="-350" y="0"/><use xlink:href="#L1_15" x="0" y="0"/><use xlink:href="#L1_15" x="350" y="0"/><use xlink:href="#L1_15" x="-350" y="350"/><use xlink:href="#L1_15" x="0" y="350"/><use xlink:href="#L1_15" x="350" y="350"/></pattern><rect x="0" y="0" width="100%" height="100%" fill="url(#pattern_L1_15)"/></g><g fi:class="KUsePattern"><pattern id="pattern_L1_16" width="350" height="350" patternUnits="userSpaceOnUse"><use xlink:href="#L1_16" x="-350" y="-350"/><use xlink:href="#L1_16" x="0" y="-350"/><use xlink:href="#L1_16" x="350" y="-350"/><use xlink:href="#L1_16" x="-350" y="0"/><use xlink:href="#L1_16" x="0" y="0"/><use xlink:href="#L1_16" x="350" y="0"/><use xlink:href="#L1_16" x="-350" y="350"/><use xlink:href="#L1_16" x="0" y="350"/><use xlink:href="#L1_16" x="350" y="350"/></pattern><rect x="0" y="0" width="100%" height="100%" fill="url(#pattern_L1_16)"/></g><g fi:class="KUsePattern"><pattern id="pattern_L1_17" width="350" height="350" patternUnits="userSpaceOnUse"><use xlink:href="#L1_17" x="-350" y="-350"/><use xlink:href="#L1_17" x="0" y="-350"/><use xlink:href="#L1_17" x="350" y="-350"/><use xlink:href="#L1_17" x="-350" y="0"/><use xlink:href="#L1_17" x="0" y="0"/><use xlink:href="#L1_17" x="350" y="0"/><use xlink:href="#L1_17" x="-350" y="350"/><use xlink:href="#L1_17" x="0" y="350"/><use xlink:href="#L1_17" x="350" y="350"/></pattern><rect x="0" y="0" width="100%" height="100%" fill="url(#pattern_L1_17)"/></g><g fi:class="KUsePattern"><pattern id="pattern_L1_18" width="350" height="350" patternUnits="userSpaceOnUse"><use xlink:href="#L1_18" x="-350" y="-350"/><use xlink:href="#L1_18" x="0" y="-350"/><use xlink:href="#L1_18" x="350" y="-350"/><use xlink:href="#L1_18" x="-350" y="0"/><use xlink:href="#L1_18" x="0" y="0"/><use xlink:href="#L1_18" x="350" y="0"/><use xlink:href="#L1_18" x="-350" y="350"/><use xlink:href="#L1_18" x="0" y="350"/><use xlink:href="#L1_18" x="350" y="350"/></pattern><rect x="0" y="0" width="100%" height="100%" fill="url(#pattern_L1_18)"/></g><g fi:class="KUsePattern"><pattern id="pattern_L1_19" width="350" height="350" patternUnits="userSpaceOnUse"><use xlink:href="#L1_19" x="-350" y="-350"/><use xlink:href="#L1_19" x="0" y="-350"/><use xlink:href="#L1_19" x="350" y="-350"/><use xlink:href="#L1_19" x="-350" y="0"/><use xlink:href="#L1_19" x="0" y="0"/><use xlink:href="#L1_19" x="350" y="0"/><use xlink:href="#L1_19" x="-350" y="350"/><use xlink:href="#L1_19" x="0" y="350"/><use xlink:href="#L1_19" x="350" y="350"/></pattern><rect x="0" y="0" width="100%" height="100%" fill="url(#pattern_L1_19)"/></g></svg>